<?xml version="1.0" encoding="UTF-8"?><svg id="b" xmlns="http://www.w3.org/2000/svg" viewBox="0 0 132.38 141.73"><defs><style>.d{fill:#00ae42;stroke-width:0px;}</style></defs><g id="c"><path class="d" d="m131.77,68.99c-4.92-8.13-11.93-15.67-20.3-21.78-7.73-5.65-15.86-9.53-22.89-10.91-5.91-1.16-10.79-.46-14.14,2.03-5.24,3.9-8.62,11.06-8.62,18.24,0,1.44.14,2.85.42,4.18.98,4.67,3.56,8.49,7.49,11.1-1.52,1.34-2.84,2.83-3.93,4.45-2.26,3.34-3.53,7.19-3.66,11.13,0,.24-.01.47-.01.71,0,6.77,3.44,13.06,8.75,16.02,7.22,4.02,17.82,2.22,29.84-5.07,10.38-6.3,20.47-15.93,26.97-25.76.45-.66.68-1.43.68-2.22,0-.75-.21-1.49-.61-2.11Zm-57.7,18.71c.18-5.27,3.52-9.9,9.17-12.73,6.01-1.86,10.71-2.47,10.76-2.48l2.98-.38-2.75-1.22c-.18-.08-4.47-1.96-10.43-3.45-.25-.08-.7-.2-.88-.23-5.04-1.19-8.04-3.91-8.91-8.09-.17-.83-.26-1.71-.26-2.6,0-5.11,2.73-9.81,5.44-11.82,1.46-1.08,4.32-1.3,7.87-.61,10.51,2.07,26.82,12.18,36.6,26.92-5.87,8.15-14.44,16.08-23.05,21.3-9.2,5.58-17.38,7.42-21.86,4.92-2.84-1.58-4.68-5.15-4.68-9.08,0-.15,0-.3,0-.44Z"/><path class="d" d="m11.28,67.09c6,2.59,13.89,1.94,20.1-1.65,1.25-.72,2.39-1.55,3.41-2.46,3.56-3.18,5.57-7.33,5.86-12.04,1.92.64,3.87,1.04,5.82,1.18,4.02.29,7.99-.54,11.47-2.39.21-.11.42-.23.62-.35,5.86-3.39,9.59-9.51,9.5-15.59-.13-8.26-6.98-16.54-19.31-23.31C38.12,4.64,24.73.73,12.97.01c-.79-.06-1.58.12-2.27.52-.65.38-1.18.93-1.52,1.58C4.59,10.44,1.58,20.28.46,30.58c-1.03,9.52-.32,18.5,2,25.28,1.95,5.7,5,9.58,8.82,11.23ZM44.95,17.44c9.44,5.18,15.12,11.34,15.19,16.47.05,3.25-2.12,6.63-5.52,8.59-.13.07-.26.15-.39.22-4.65,2.48-10.34,1.9-15.61-1.58-4.62-4.28-7.5-8.04-7.53-8.08l-1.82-2.39.32,2.99c.02.2.53,4.85,2.23,10.76.05.25.18.7.24.88,1.49,4.96.63,8.92-2.55,11.76-.63.57-1.35,1.08-2.12,1.53-4.42,2.55-9.86,2.54-12.96,1.2-1.67-.72-3.29-3.09-4.46-6.51-3.46-10.14-2.86-29.32,5.01-45.16,9.99,1.01,21.15,4.47,29.97,9.31Z"/><path class="d" d="m56.3,90.83c-1.25-.72-2.54-1.3-3.83-1.73-4.54-1.49-9.13-1.16-13.36.94-.4-1.98-1.03-3.87-1.89-5.63-1.76-3.63-4.46-6.65-7.81-8.74-.2-.13-.4-.25-.61-.37-5.86-3.38-13.03-3.55-18.25-.43C3.45,79.12-.29,89.2.02,103.26c.26,12.14,3.56,25.69,8.83,36.24.35.72.9,1.3,1.59,1.7.65.38,1.4.56,2.13.53,9.5-.19,19.53-2.5,29.01-6.69,8.76-3.87,16.18-8.97,20.89-14.37,3.96-4.53,5.8-9.12,5.31-13.26-.76-6.49-5.26-13-11.48-16.59Zm-48.35,12.26c-.23-10.76,2.26-18.76,6.67-21.4,2.79-1.67,6.8-1.48,10.2.49.13.07.25.15.38.23,4.47,2.79,6.81,8.01,6.44,14.32-1.39,6.13-3.21,10.51-3.23,10.55l-1.16,2.77,2.43-1.77c.16-.12,3.94-2.89,8.21-7.32.19-.17.52-.51.64-.64,3.55-3.77,7.41-5,11.46-3.67.81.27,1.61.63,2.39,1.07,4.42,2.55,7.13,7.27,7.52,10.62.21,1.8-1.03,4.4-3.41,7.12-7.05,8.07-23.96,17.13-41.61,18.24-4.12-9.16-6.7-20.55-6.92-30.61Z"/></g></svg>